<?xml version="1.0"?>
<svg xmlns="http://www.w3.org/2000/svg" xmlns:xlink="http://www.w3.org/1999/xlink" xmlns:svgjs="http://svgjs.com/svgjs" version="1.1" width="512" height="512" x="0" y="0" viewBox="0 0 74 74" style="enable-background:new 0 0 512 512" xml:space="preserve" class=""><g><path xmlns="http://www.w3.org/2000/svg" d="m49.5 51.57a1 1 0 0 1 -.727-1.687c1.3-1.381 2.452-2.675 3.5-3.958a1 1 0 1 1 1.545 1.27c-1.082 1.318-2.258 2.647-3.6 4.062a1 1 0 0 1 -.718.313z" fill="#2f89fc" data-original="#000000" style=""/><path xmlns="http://www.w3.org/2000/svg" d="m35.55 63.77a1 1 0 0 1 -.575-.182c-.653-.458-16.062-11.373-23.4-24.572a26.318 26.318 0 0 1 -3.765-12.676 16.112 16.112 0 0 1 27.739-11.152 16.106 16.106 0 0 1 27.731 11.152 25.5 25.5 0 0 1 -3.233 11.683 45.529 45.529 0 0 1 -3.434 5.569 1 1 0 0 1 -1.627-1.164 43.353 43.353 0 0 0 3.285-5.328 23.532 23.532 0 0 0 3.009-10.76 14.106 14.106 0 0 0 -24.961-9.012 1 1 0 0 1 -.768.362 1 1 0 0 1 -.769-.36 14.112 14.112 0 0 0 -24.972 9.01 24.373 24.373 0 0 0 3.513 11.7c6.332 11.392 19.341 21.366 22.228 23.493.575-.423 1.551-1.157 2.783-2.145a1 1 0 1 1 1.252 1.56c-2.072 1.661-3.406 2.6-3.462 2.639a1 1 0 0 1 -.574.183z" fill="#2f89fc" data-original="#000000" style=""/><path xmlns="http://www.w3.org/2000/svg" d="m42.4 58.33a1 1 0 0 1 -.657-1.754c1.423-1.24 2.7-2.409 3.912-3.576a1 1 0 0 1 1.389 1.44c-1.235 1.19-2.539 2.382-3.986 3.644a1 1 0 0 1 -.658.246z" fill="#2f89fc" data-original="#000000" style=""/><path xmlns="http://www.w3.org/2000/svg" d="m29.735 43.376a.888.888 0 0 1 -.115-.007 1 1 0 0 1 -.837-.686l-3.708-11.516-2.526 7.672a1 1 0 0 1 -.95.687h-18.599a1 1 0 0 1 0-2h17.875l3.261-9.9a1 1 0 0 1 .95-.687 1 1 0 0 1 .949.693l3.976 12.349 1.189-1.97a1 1 0 0 1 .857-.483h2.2l3.833-10.884a1 1 0 0 1 .9-.667.991.991 0 0 1 .954.587l6.093 13.454 1.4-2.888a1 1 0 0 1 .9-.565h22.663a1 1 0 0 1 0 2h-22.039l-2.052 4.248a1 1 0 0 1 -.9.565h-.009a1 1 0 0 1 -.9-.587l-5.95-13.136-3.241 9.2a1 1 0 0 1 -.943.668h-2.342l-2.032 3.367a1 1 0 0 1 -.857.486z" fill="#2f89fc" data-original="#000000" style=""/></g></svg>
